<?xml version="1.0" encoding="utf-8"?>
<!-- Generator: Adobe Illustrator 20.0.0, SVG Export Plug-In . SVG Version: 6.00 Build 0)  -->
<svg version="1.1" xmlns="http://www.w3.org/2000/svg" xmlns:xlink="http://www.w3.org/1999/xlink" x="0px" y="0px"
	 viewBox="0 0 300 93.364" style="enable-background:new 0 0 300 93.364;" xml:space="preserve">
<style type="text/css">
	.Arched_x0020_Green{fill:url(#SVGID_1_);stroke:#FFFFFF;stroke-width:0.25;stroke-miterlimit:1;}
	.st0{fill:url(#SVGID_2_);}
	.st1{fill:#1082C1;}
	.st2{fill:url(#SVGID_3_);}
	.st3{fill:url(#SVGID_4_);}
	.st4{fill:url(#SVGID_5_);}
	.st5{fill:url(#SVGID_6_);}
	.st6{fill:url(#SVGID_7_);}
	.st7{fill:#FFFFFF;}
	.st8{fill:url(#SVGID_8_);}
	.st9{fill:url(#SVGID_9_);}
	.st10{fill:url(#SVGID_10_);}
	.st11{fill:url(#SVGID_11_);}
	.st12{fill:url(#SVGID_12_);}
	.st13{fill:url(#SVGID_13_);}
	.st14{fill:url(#SVGID_14_);}
	.st15{fill:url(#SVGID_15_);}
	.st16{fill:url(#SVGID_16_);}
	.st17{fill:url(#SVGID_17_);}
	.st18{fill:url(#SVGID_18_);}
	.st19{fill:url(#SVGID_19_);}
	.st20{fill:url(#SVGID_20_);}
	.st21{fill:url(#SVGID_21_);}
	.st22{fill:url(#SVGID_22_);}
	.st23{filter:url(#Adobe_OpacityMaskFilter);}
	.st24{filter:url(#Adobe_OpacityMaskFilter_1_);}
	.st25{mask:url(#SVGID_23_);fill:url(#SVGID_24_);}
	.st26{fill:url(#SVGID_25_);}
	.st27{filter:url(#Adobe_OpacityMaskFilter_2_);}
	.st28{filter:url(#Adobe_OpacityMaskFilter_3_);}
	.st29{mask:url(#SVGID_26_);fill:url(#SVGID_27_);}
	.st30{fill:url(#SVGID_28_);}
	.st31{filter:url(#Adobe_OpacityMaskFilter_4_);}
	.st32{filter:url(#Adobe_OpacityMaskFilter_5_);}
	.st33{mask:url(#SVGID_29_);fill:url(#SVGID_30_);}
	.st34{fill:url(#SVGID_31_);}
	.st35{filter:url(#Adobe_OpacityMaskFilter_6_);}
	.st36{filter:url(#Adobe_OpacityMaskFilter_7_);}
	.st37{mask:url(#SVGID_32_);fill:url(#SVGID_33_);}
	.st38{fill:url(#SVGID_34_);}
	.st39{filter:url(#Adobe_OpacityMaskFilter_8_);}
	.st40{filter:url(#Adobe_OpacityMaskFilter_9_);}
	.st41{mask:url(#SVGID_35_);fill:url(#SVGID_36_);}
	.st42{fill:url(#SVGID_37_);}
	.st43{filter:url(#Adobe_OpacityMaskFilter_10_);}
	.st44{filter:url(#Adobe_OpacityMaskFilter_11_);}
	.st45{mask:url(#SVGID_38_);fill:url(#SVGID_39_);}
	.st46{fill:url(#SVGID_40_);}
	.st47{filter:url(#Adobe_OpacityMaskFilter_12_);}
	.st48{filter:url(#Adobe_OpacityMaskFilter_13_);}
	.st49{mask:url(#SVGID_41_);fill:url(#SVGID_42_);}
	.st50{fill:url(#SVGID_43_);}
	.st51{filter:url(#Adobe_OpacityMaskFilter_14_);}
	.st52{filter:url(#Adobe_OpacityMaskFilter_15_);}
	.st53{mask:url(#SVGID_44_);fill:url(#SVGID_45_);}
	.st54{fill:url(#SVGID_46_);}
	.st55{fill:url(#SVGID_47_);}
	.st56{fill:url(#SVGID_48_);}
	.st57{fill:url(#SVGID_49_);}
	.st58{fill:url(#SVGID_50_);}
	.st59{fill:url(#SVGID_51_);}
	.st60{fill:url(#SVGID_52_);}
	.st61{fill:url(#SVGID_53_);}
	.st62{fill:url(#SVGID_54_);}
	.st63{fill:url(#SVGID_55_);}
	.st64{fill:url(#SVGID_56_);}
	.st65{fill:url(#SVGID_57_);}
	.st66{fill:url(#SVGID_58_);}
	.st67{fill:url(#SVGID_59_);}
	.st68{fill:url(#SVGID_60_);}
	.st69{fill:url(#SVGID_61_);}
	.st70{fill:url(#SVGID_62_);}
	.st71{fill:url(#SVGID_63_);}
	.st72{fill:url(#SVGID_64_);}
	.st73{fill:url(#SVGID_65_);}
	.st74{fill:url(#SVGID_66_);}
	.st75{filter:url(#Adobe_OpacityMaskFilter_16_);}
	.st76{filter:url(#Adobe_OpacityMaskFilter_17_);}
	.st77{mask:url(#SVGID_67_);fill:url(#SVGID_68_);}
	.st78{opacity:0.3;fill:url(#SVGID_69_);}
	.st79{filter:url(#Adobe_OpacityMaskFilter_18_);}
	.st80{filter:url(#Adobe_OpacityMaskFilter_19_);}
	.st81{mask:url(#SVGID_70_);fill:url(#SVGID_71_);}
	.st82{opacity:0.3;fill:url(#SVGID_72_);}
	.st83{filter:url(#Adobe_OpacityMaskFilter_20_);}
	.st84{filter:url(#Adobe_OpacityMaskFilter_21_);}
	.st85{mask:url(#SVGID_73_);fill:url(#SVGID_74_);}
	.st86{opacity:0.3;fill:url(#SVGID_75_);}
	.st87{filter:url(#Adobe_OpacityMaskFilter_22_);}
	.st88{filter:url(#Adobe_OpacityMaskFilter_23_);}
	.st89{mask:url(#SVGID_76_);fill:url(#SVGID_77_);}
	.st90{opacity:0.3;fill:url(#SVGID_78_);}
	.st91{filter:url(#Adobe_OpacityMaskFilter_24_);}
	.st92{filter:url(#Adobe_OpacityMaskFilter_25_);}
	.st93{mask:url(#SVGID_79_);fill:url(#SVGID_80_);}
	.st94{opacity:0.3;fill:url(#SVGID_81_);}
	.st95{filter:url(#Adobe_OpacityMaskFilter_26_);}
	.st96{filter:url(#Adobe_OpacityMaskFilter_27_);}
	.st97{mask:url(#SVGID_82_);fill:url(#SVGID_83_);}
	.st98{opacity:0.3;fill:url(#SVGID_84_);}
	.st99{filter:url(#Adobe_OpacityMaskFilter_28_);}
	.st100{filter:url(#Adobe_OpacityMaskFilter_29_);}
	.st101{mask:url(#SVGID_85_);fill:url(#SVGID_86_);}
	.st102{opacity:0.3;fill:url(#SVGID_87_);}
</style>
<linearGradient id="SVGID_1_" gradientUnits="userSpaceOnUse" x1="1717.2296" y1="885.4457" x2="1717.9368" y2="884.7386">
	<stop  offset="0" style="stop-color:#1EAB4B"/>
	<stop  offset="0.9831" style="stop-color:#19361A"/>
</linearGradient>
<g id="Layer_1">
</g>
<g id="Layer_2">
</g>
<g id="Layer_3">
	<path class="st1" d="M225.715,16.305c6.618,0,12.302,3.075,16.03,8.48l8.945-6.71c-6.524-8.202-15.656-12.023-24.976-12.023
		c-17.521,0-31.412,13.328-31.412,30.478c0,17.155,13.891,30.481,31.412,30.481c9.319,0,18.451-3.819,24.976-12.018l-8.759-6.341
		c-3.73,5.034-9.599,8.113-16.217,8.113c-10.532,0-20.038-8.859-20.038-20.234C205.677,25.159,215.183,16.305,225.715,16.305z"/>
	<polygon class="st1" points="254.891,7.264 254.891,17.513 272.042,17.513 272.042,65.801 282.85,65.801 282.85,17.513 300,17.513 
		300,7.264 	"/>
	<path class="st1" d="M167.097,7.264l-25.478,58.537h11.551l4.476-10.995h24.795l4.471,10.995h11.652L173.772,7.264H167.097z
		 M161.561,45.113l8.578-20.98l8.48,20.98H161.561z"/>
	<path class="st1" d="M150.586,27.301c0-11.463-8.022-20.037-21.069-20.037h-27.865v58.537h10.812V47.348h17.053
		C142.564,47.348,150.586,38.767,150.586,27.301z M112.464,37.091V17.513h16.215c7.646,0,11.092,4.568,11.092,9.787
		c0,5.22-3.446,9.79-11.092,9.79H112.464z"/>
	<path class="st1" d="M0,0v93.364h93.354V0H0z M16.999,6.943c2.938,0,5.321,2.386,5.321,5.319c0,2.937-2.383,5.322-5.321,5.322
		c-2.934,0-5.321-2.385-5.321-5.322C11.679,9.329,14.065,6.943,16.999,6.943z M12.232,21.345h9.539v44.4h-9.539V21.345z
		 M46.835,87.958L14.698,72.25h64.285L46.835,87.958z M81.312,65.89H70.67V30.295L55.719,45.805L40.767,30.295V65.89h-10.64V7.09
		l25.591,25.865L81.312,7.09V65.89z"/>
</g>
</svg>
